<mxfile host="Electron" agent="Mozilla/5.0 (Windows NT 10.0; Win64; x64) AppleWebKit/537.36 (KHTML, like Gecko) draw.io/24.7.8 Chrome/128.0.6613.36 Electron/32.0.1 Safari/537.36" version="24.7.8">
  <diagram name="uml" id="Oet2zIbuT-7dPbfuXTW_">
    <mxGraphModel dx="1434" dy="844" grid="1" gridSize="10" guides="1" tooltips="1" connect="1" arrows="1" fold="1" page="1" pageScale="1" pageWidth="1169" pageHeight="827" math="0" shadow="0">
      <root>
        <mxCell id="0" />
        <mxCell id="1" parent="0" />
        <mxCell id="BCxU4Qu_eJ_Tsoyi1QT--9" value="" style="shape=folder;fontStyle=1;spacingTop=10;tabWidth=40;tabHeight=14;tabPosition=left;html=1;whiteSpace=wrap;fillColor=none;" vertex="1" parent="1">
          <mxGeometry x="10" y="10" width="880" height="450" as="geometry" />
        </mxCell>
        <mxCell id="BCxU4Qu_eJ_Tsoyi1QT--1" value="&lt;i&gt;Animal&lt;/i&gt;" style="swimlane;fontStyle=1;align=center;verticalAlign=top;childLayout=stackLayout;horizontal=1;startSize=26;horizontalStack=0;resizeParent=1;resizeParentMax=0;resizeLast=0;collapsible=1;marginBottom=0;whiteSpace=wrap;html=1;fillColor=none;" vertex="1" parent="1">
          <mxGeometry x="370" y="40" width="160" height="190" as="geometry" />
        </mxCell>
        <mxCell id="BCxU4Qu_eJ_Tsoyi1QT--2" value="- name: String" style="text;strokeColor=none;fillColor=none;align=left;verticalAlign=top;spacingLeft=4;spacingRight=4;overflow=hidden;rotatable=0;points=[[0,0.5],[1,0.5]];portConstraint=eastwest;whiteSpace=wrap;html=1;" vertex="1" parent="BCxU4Qu_eJ_Tsoyi1QT--1">
          <mxGeometry y="26" width="160" height="26" as="geometry" />
        </mxCell>
        <mxCell id="BCxU4Qu_eJ_Tsoyi1QT--6" value="- birthdate: Date" style="text;strokeColor=none;fillColor=none;align=left;verticalAlign=top;spacingLeft=4;spacingRight=4;overflow=hidden;rotatable=0;points=[[0,0.5],[1,0.5]];portConstraint=eastwest;whiteSpace=wrap;html=1;" vertex="1" parent="BCxU4Qu_eJ_Tsoyi1QT--1">
          <mxGeometry y="52" width="160" height="26" as="geometry" />
        </mxCell>
        <mxCell id="BCxU4Qu_eJ_Tsoyi1QT--3" value="" style="line;strokeWidth=1;fillColor=none;align=left;verticalAlign=middle;spacingTop=-1;spacingLeft=3;spacingRight=3;rotatable=0;labelPosition=right;points=[];portConstraint=eastwest;strokeColor=inherit;" vertex="1" parent="BCxU4Qu_eJ_Tsoyi1QT--1">
          <mxGeometry y="78" width="160" height="8" as="geometry" />
        </mxCell>
        <mxCell id="BCxU4Qu_eJ_Tsoyi1QT--4" value="+ getName(): String" style="text;strokeColor=none;fillColor=none;align=left;verticalAlign=top;spacingLeft=4;spacingRight=4;overflow=hidden;rotatable=0;points=[[0,0.5],[1,0.5]];portConstraint=eastwest;whiteSpace=wrap;html=1;" vertex="1" parent="BCxU4Qu_eJ_Tsoyi1QT--1">
          <mxGeometry y="86" width="160" height="26" as="geometry" />
        </mxCell>
        <mxCell id="BCxU4Qu_eJ_Tsoyi1QT--5" value="+ setName(): void" style="text;strokeColor=none;fillColor=none;align=left;verticalAlign=top;spacingLeft=4;spacingRight=4;overflow=hidden;rotatable=0;points=[[0,0.5],[1,0.5]];portConstraint=eastwest;whiteSpace=wrap;html=1;" vertex="1" parent="BCxU4Qu_eJ_Tsoyi1QT--1">
          <mxGeometry y="112" width="160" height="26" as="geometry" />
        </mxCell>
        <mxCell id="BCxU4Qu_eJ_Tsoyi1QT--24" value="+ getAge(): int" style="text;strokeColor=none;fillColor=none;align=left;verticalAlign=top;spacingLeft=4;spacingRight=4;overflow=hidden;rotatable=0;points=[[0,0.5],[1,0.5]];portConstraint=eastwest;whiteSpace=wrap;html=1;" vertex="1" parent="BCxU4Qu_eJ_Tsoyi1QT--1">
          <mxGeometry y="138" width="160" height="26" as="geometry" />
        </mxCell>
        <mxCell id="BCxU4Qu_eJ_Tsoyi1QT--25" value="+ setBirthDate(): void" style="text;strokeColor=none;fillColor=none;align=left;verticalAlign=top;spacingLeft=4;spacingRight=4;overflow=hidden;rotatable=0;points=[[0,0.5],[1,0.5]];portConstraint=eastwest;whiteSpace=wrap;html=1;" vertex="1" parent="BCxU4Qu_eJ_Tsoyi1QT--1">
          <mxGeometry y="164" width="160" height="26" as="geometry" />
        </mxCell>
        <mxCell id="BCxU4Qu_eJ_Tsoyi1QT--7" value="&lt;p style=&quot;margin:0px;margin-top:4px;text-align:center;&quot;&gt;&lt;b&gt;&lt;i&gt;Pet&lt;/i&gt;&lt;/b&gt;&lt;/p&gt;" style="verticalAlign=top;align=left;overflow=fill;html=1;whiteSpace=wrap;fillColor=none;" vertex="1" parent="1">
          <mxGeometry x="150" y="240" width="140" height="60" as="geometry" />
        </mxCell>
        <mxCell id="BCxU4Qu_eJ_Tsoyi1QT--8" value="&lt;p style=&quot;margin:0px;margin-top:4px;text-align:center;&quot;&gt;&lt;b&gt;&lt;i&gt;PackAnimal&lt;/i&gt;&lt;/b&gt;&lt;/p&gt;" style="verticalAlign=top;align=left;overflow=fill;html=1;whiteSpace=wrap;fillColor=none;" vertex="1" parent="1">
          <mxGeometry x="620" y="240" width="140" height="60" as="geometry" />
        </mxCell>
        <mxCell id="BCxU4Qu_eJ_Tsoyi1QT--10" value="Extends" style="endArrow=block;endSize=16;endFill=0;html=1;rounded=0;exitX=0.5;exitY=0;exitDx=0;exitDy=0;entryX=0;entryY=0.5;entryDx=0;entryDy=0;" edge="1" parent="1" source="BCxU4Qu_eJ_Tsoyi1QT--7" target="BCxU4Qu_eJ_Tsoyi1QT--2">
          <mxGeometry x="-0.3569" width="160" relative="1" as="geometry">
            <mxPoint x="330" y="230" as="sourcePoint" />
            <mxPoint x="490" y="230" as="targetPoint" />
            <Array as="points">
              <mxPoint x="220" y="79" />
            </Array>
            <mxPoint as="offset" />
          </mxGeometry>
        </mxCell>
        <mxCell id="BCxU4Qu_eJ_Tsoyi1QT--11" value="Extends" style="endArrow=block;endSize=16;endFill=0;html=1;rounded=0;exitX=0.5;exitY=0;exitDx=0;exitDy=0;entryX=1;entryY=0.5;entryDx=0;entryDy=0;" edge="1" parent="1" source="BCxU4Qu_eJ_Tsoyi1QT--8" target="BCxU4Qu_eJ_Tsoyi1QT--2">
          <mxGeometry x="-0.375" width="160" relative="1" as="geometry">
            <mxPoint x="330" y="230" as="sourcePoint" />
            <mxPoint x="490" y="230" as="targetPoint" />
            <Array as="points">
              <mxPoint x="690" y="80" />
            </Array>
            <mxPoint as="offset" />
          </mxGeometry>
        </mxCell>
        <mxCell id="BCxU4Qu_eJ_Tsoyi1QT--12" value="&lt;p style=&quot;margin:0px;margin-top:4px;text-align:center;&quot;&gt;&lt;b&gt;Cat&lt;/b&gt;&lt;/p&gt;" style="verticalAlign=top;align=left;overflow=fill;html=1;whiteSpace=wrap;fillColor=none;" vertex="1" parent="1">
          <mxGeometry x="170" y="370" width="100" height="60" as="geometry" />
        </mxCell>
        <mxCell id="BCxU4Qu_eJ_Tsoyi1QT--13" value="&lt;p style=&quot;margin:0px;margin-top:4px;text-align:center;&quot;&gt;&lt;b&gt;Dog&lt;/b&gt;&lt;/p&gt;" style="verticalAlign=top;align=left;overflow=fill;html=1;whiteSpace=wrap;fillColor=none;" vertex="1" parent="1">
          <mxGeometry x="290" y="370" width="100" height="60" as="geometry" />
        </mxCell>
        <mxCell id="BCxU4Qu_eJ_Tsoyi1QT--14" value="&lt;p style=&quot;margin:0px;margin-top:4px;text-align:center;&quot;&gt;&lt;span class=&quot;EzKURWReUAB5oZgtQNkl&quot; data-src-align=&quot;0:5&quot; style=&quot;white-space-collapse: preserve;&quot;&gt;Hamster&lt;/span&gt;&lt;br&gt;&lt;/p&gt;" style="verticalAlign=top;align=left;overflow=fill;html=1;whiteSpace=wrap;fillColor=none;fontStyle=1" vertex="1" parent="1">
          <mxGeometry x="50" y="370" width="100" height="60" as="geometry" />
        </mxCell>
        <mxCell id="BCxU4Qu_eJ_Tsoyi1QT--15" value="Extends" style="endArrow=block;endSize=16;endFill=0;html=1;rounded=0;exitX=0.5;exitY=0;exitDx=0;exitDy=0;entryX=0;entryY=0.5;entryDx=0;entryDy=0;" edge="1" parent="1" source="BCxU4Qu_eJ_Tsoyi1QT--14" target="BCxU4Qu_eJ_Tsoyi1QT--7">
          <mxGeometry width="160" relative="1" as="geometry">
            <mxPoint x="330" y="230" as="sourcePoint" />
            <mxPoint x="490" y="230" as="targetPoint" />
            <Array as="points">
              <mxPoint x="100" y="270" />
            </Array>
          </mxGeometry>
        </mxCell>
        <mxCell id="BCxU4Qu_eJ_Tsoyi1QT--16" value="Extends" style="endArrow=block;endSize=16;endFill=0;html=1;rounded=0;exitX=0.5;exitY=0;exitDx=0;exitDy=0;entryX=0.5;entryY=1;entryDx=0;entryDy=0;" edge="1" parent="1" source="BCxU4Qu_eJ_Tsoyi1QT--12" target="BCxU4Qu_eJ_Tsoyi1QT--7">
          <mxGeometry width="160" relative="1" as="geometry">
            <mxPoint x="330" y="230" as="sourcePoint" />
            <mxPoint x="490" y="230" as="targetPoint" />
          </mxGeometry>
        </mxCell>
        <mxCell id="BCxU4Qu_eJ_Tsoyi1QT--17" value="Extends" style="endArrow=block;endSize=16;endFill=0;html=1;rounded=0;exitX=0.5;exitY=0;exitDx=0;exitDy=0;entryX=1;entryY=0.5;entryDx=0;entryDy=0;" edge="1" parent="1" source="BCxU4Qu_eJ_Tsoyi1QT--13" target="BCxU4Qu_eJ_Tsoyi1QT--7">
          <mxGeometry width="160" relative="1" as="geometry">
            <mxPoint x="330" y="230" as="sourcePoint" />
            <mxPoint x="490" y="230" as="targetPoint" />
            <Array as="points">
              <mxPoint x="340" y="270" />
            </Array>
          </mxGeometry>
        </mxCell>
        <mxCell id="BCxU4Qu_eJ_Tsoyi1QT--18" value="&lt;p style=&quot;margin:0px;margin-top:4px;text-align:center;&quot;&gt;&lt;span class=&quot;EzKURWReUAB5oZgtQNkl&quot; data-src-align=&quot;0:6&quot; style=&quot;white-space-collapse: preserve;&quot;&gt;Horse&lt;/span&gt;&lt;br&gt;&lt;/p&gt;" style="verticalAlign=top;align=left;overflow=fill;html=1;whiteSpace=wrap;fillColor=none;fontStyle=1" vertex="1" parent="1">
          <mxGeometry x="640" y="370" width="100" height="60" as="geometry" />
        </mxCell>
        <mxCell id="BCxU4Qu_eJ_Tsoyi1QT--19" value="&lt;p style=&quot;margin:0px;margin-top:4px;text-align:center;&quot;&gt;&lt;span class=&quot;EzKURWReUAB5oZgtQNkl&quot; data-src-align=&quot;0:7&quot; style=&quot;white-space-collapse: preserve;&quot;&gt;C&lt;/span&gt;&lt;span style=&quot;white-space-collapse: preserve; background-color: initial;&quot;&gt;amel&lt;/span&gt;&lt;/p&gt;" style="verticalAlign=top;align=left;overflow=fill;html=1;whiteSpace=wrap;fillColor=none;fontStyle=1" vertex="1" parent="1">
          <mxGeometry x="760" y="370" width="100" height="60" as="geometry" />
        </mxCell>
        <mxCell id="BCxU4Qu_eJ_Tsoyi1QT--20" value="&lt;p style=&quot;margin:0px;margin-top:4px;text-align:center;&quot;&gt;&lt;span style=&quot;white-space-collapse: preserve;&quot; data-src-align=&quot;0:4&quot; class=&quot;EzKURWReUAB5oZgtQNkl&quot;&gt;Donkey&lt;/span&gt;&lt;br&gt;&lt;/p&gt;" style="verticalAlign=top;align=left;overflow=fill;html=1;whiteSpace=wrap;fillColor=none;fontStyle=1" vertex="1" parent="1">
          <mxGeometry x="520" y="370" width="100" height="60" as="geometry" />
        </mxCell>
        <mxCell id="BCxU4Qu_eJ_Tsoyi1QT--21" value="Extends" style="endArrow=block;endSize=16;endFill=0;html=1;rounded=0;exitX=0.5;exitY=0;exitDx=0;exitDy=0;entryX=0;entryY=0.5;entryDx=0;entryDy=0;" edge="1" parent="1" source="BCxU4Qu_eJ_Tsoyi1QT--20" target="BCxU4Qu_eJ_Tsoyi1QT--8">
          <mxGeometry width="160" relative="1" as="geometry">
            <mxPoint x="110" y="380" as="sourcePoint" />
            <mxPoint x="160" y="280" as="targetPoint" />
            <Array as="points">
              <mxPoint x="570" y="270" />
            </Array>
          </mxGeometry>
        </mxCell>
        <mxCell id="BCxU4Qu_eJ_Tsoyi1QT--22" value="Extends" style="endArrow=block;endSize=16;endFill=0;html=1;rounded=0;entryX=0.5;entryY=1;entryDx=0;entryDy=0;exitX=0.5;exitY=0;exitDx=0;exitDy=0;" edge="1" parent="1" source="BCxU4Qu_eJ_Tsoyi1QT--18" target="BCxU4Qu_eJ_Tsoyi1QT--8">
          <mxGeometry width="160" relative="1" as="geometry">
            <mxPoint x="330" y="230" as="sourcePoint" />
            <mxPoint x="490" y="230" as="targetPoint" />
          </mxGeometry>
        </mxCell>
        <mxCell id="BCxU4Qu_eJ_Tsoyi1QT--23" value="Extends" style="endArrow=block;endSize=16;endFill=0;html=1;rounded=0;entryX=1;entryY=0.5;entryDx=0;entryDy=0;exitX=0.5;exitY=0;exitDx=0;exitDy=0;" edge="1" parent="1" source="BCxU4Qu_eJ_Tsoyi1QT--19" target="BCxU4Qu_eJ_Tsoyi1QT--8">
          <mxGeometry width="160" relative="1" as="geometry">
            <mxPoint x="330" y="230" as="sourcePoint" />
            <mxPoint x="490" y="230" as="targetPoint" />
            <Array as="points">
              <mxPoint x="810" y="270" />
            </Array>
          </mxGeometry>
        </mxCell>
      </root>
    </mxGraphModel>
  </diagram>
</mxfile>
